<mxfile host="Electron" agent="Mozilla/5.0 (Windows NT 10.0; Win64; x64) AppleWebKit/537.36 (KHTML, like Gecko) draw.io/26.0.4 Chrome/128.0.6613.186 Electron/32.2.5 Safari/537.36" version="26.0.4">
  <diagram name="第 1 页" id="A2wYnKDMZFF023bxGnZ8">
    <mxGraphModel dx="607" dy="844" grid="1" gridSize="10" guides="1" tooltips="1" connect="1" arrows="1" fold="1" page="1" pageScale="1" pageWidth="827" pageHeight="1169" math="0" shadow="0">
      <root>
        <mxCell id="0" />
        <mxCell id="1" parent="0" />
        <mxCell id="tHCy42ypWK_uThyhraDl-21" value="MergedBeanDefinitionPostProcessor" style="shape=umlLifeline;perimeter=lifelinePerimeter;whiteSpace=wrap;html=1;container=1;dropTarget=0;collapsible=0;recursiveResize=0;outlineConnect=0;portConstraint=eastwest;newEdgeStyle={&quot;curved&quot;:0,&quot;rounded&quot;:0};fontSize=20;fillColor=#dae8fc;strokeColor=#6c8ebf;strokeWidth=2;" parent="1" vertex="1">
          <mxGeometry x="1455" y="110" width="360" height="650" as="geometry" />
        </mxCell>
        <mxCell id="tHCy42ypWK_uThyhraDl-22" value="" style="html=1;whiteSpace=wrap;fontSize=20;fillColor=#dae8fc;strokeColor=#6c8ebf;" parent="1" vertex="1">
          <mxGeometry x="1060" y="241.75" width="1150" height="328.25" as="geometry" />
        </mxCell>
        <mxCell id="tHCy42ypWK_uThyhraDl-36" value="BeanFactory中存在的&lt;span style=&quot;&quot;&gt;MergedBeanDefinitionPostProcessor：&lt;/span&gt;&lt;div&gt;&lt;span style=&quot;&quot;&gt;&lt;div&gt;（1）ReferenceAnnotationBeanPostProcessor(dubbo)&lt;/div&gt;&lt;div&gt;（2）DubboConfigDefaultPropertyValueBeanPostProcessor(dubbo)&lt;/div&gt;&lt;div&gt;（3）CommonAnnotationBeanPostProcessor(spring)：&lt;/div&gt;&lt;div&gt;（3.1）调用父类（InitDestroyAnnotationBeanPostProcessor）检查是否存在注解@PostConstruct，@PreDestroy；&lt;/div&gt;&lt;div&gt;（3.2）&lt;span style=&quot;background-color: transparent; color: light-dark(rgb(0, 0, 0), rgb(255, 255, 255));&quot;&gt;检查是否存在注解@Resource，&lt;/span&gt;&lt;/div&gt;&lt;/span&gt;&lt;span style=&quot;&quot;&gt;&lt;div&gt;（4）AutowiredAnnotationBeanPostProcessor(spring)：检查是否存在注解 @Autowired&lt;/div&gt;&lt;div&gt;（5）ApplicationListenerDetector(spring)&lt;/div&gt;&lt;/span&gt;&lt;/div&gt;" style="html=1;whiteSpace=wrap;fontSize=20;fillColor=#dae8fc;strokeColor=#6c8ebf;align=left;verticalAlign=top;" parent="1" vertex="1">
          <mxGeometry x="1080" y="290" width="1110" height="230" as="geometry" />
        </mxCell>
        <mxCell id="tHCy42ypWK_uThyhraDl-43" value="&lt;span style=&quot;font-size: 20px;&quot;&gt;postProcessMergedBeanDefinition()：解析Bean内部注解&lt;/span&gt;" style="text;html=1;align=center;verticalAlign=middle;whiteSpace=wrap;rounded=0;fontColor=#FF0000;fontStyle=1" parent="1" vertex="1">
          <mxGeometry x="1287.5" y="250" width="605" height="26" as="geometry" />
        </mxCell>
      </root>
    </mxGraphModel>
  </diagram>
</mxfile>
